<?xml version="1.0" standalone="no"?>
<!DOCTYPE svg PUBLIC "-//W3C//DTD SVG 20010904//EN"
 "http://www.w3.org/TR/2001/REC-SVG-20010904/DTD/svg10.dtd">
<svg version="1.0" xmlns="http://www.w3.org/2000/svg"
 width="240.000000pt" height="240.000000pt" viewBox="0 0 240.000000 240.000000"
 preserveAspectRatio="xMidYMid meet">
<metadata>
Created by potrace 1.11, written by Peter Selinger 2001-2013
</metadata>
<g transform="translate(0.000000,240.000000) scale(0.100000,-0.100000)"
fill="#000000" stroke="none">
<path d="M815 2372 c-102 -35 -167 -71 -180 -99 -5 -13 -20 -23 -35 -25 -19
-2 -24 -8 -23 -25 1 -11 -4 -27 -12 -33 -19 -16 -19 -44 0 -63 13 -13 19 -13
52 4 63 32 135 20 147 -24 4 -16 17 -29 35 -35 51 -18 85 -97 55 -127 -20 -19
-19 -19 -55 7 -25 18 -44 23 -98 23 -54 0 -72 4 -95 22 -36 28 -73 24 -102
-13 -20 -24 -25 -25 -82 -20 -34 2 -64 1 -67 -5 -4 -5 -17 -9 -29 -9 -33 0
-103 -68 -111 -107 -5 -24 -3 -33 6 -33 7 0 33 -7 56 -16 l43 -17 -6 -56 c-4
-32 -29 -112 -60 -188 -30 -72 -54 -138 -54 -145 0 -7 11 -30 25 -50 26 -38
33 -95 16 -127 -13 -23 1 -42 40 -55 20 -7 41 -24 52 -44 l19 -33 -22 -24
c-16 -17 -39 -27 -72 -31 -60 -8 -63 -27 -6 -46 47 -14 61 -41 33 -62 -13 -9
-14 -17 -6 -38 5 -14 8 -28 7 -29 -2 -2 -6 -20 -10 -40 -6 -34 -5 -37 23 -42
19 -4 34 -16 43 -34 8 -17 23 -29 38 -31 14 -2 29 -10 33 -18 4 -8 14 -14 22
-14 7 0 36 -18 63 -39 56 -45 69 -74 71 -165 l1 -60 73 -75 c76 -80 98 -95
128 -86 22 7 25 25 7 43 -17 17 6 39 42 40 27 1 61 -27 72 -59 3 -9 13 -12 48
-18 2 -1 -1 -6 -8 -13 -30 -30 -2 -68 50 -68 13 0 35 -6 50 -14 56 -30 93 -37
127 -25 40 14 46 8 33 -29 -11 -32 -6 -45 21 -55 9 -3 17 -13 17 -21 0 -9 11
-19 26 -22 32 -8 95 2 104 16 4 6 37 13 73 15 47 3 75 10 94 25 16 11 58 31
95 44 75 27 137 67 184 118 38 40 43 55 33 92 -5 18 -4 44 3 67 14 48 -7 132
-32 124 -19 -6 -34 4 -49 32 -6 13 -37 35 -67 49 -41 19 -59 34 -66 55 -5 16
-14 29 -19 29 -21 0 -20 31 2 75 l23 45 -22 38 c-11 20 -29 39 -39 41 -10 2
-29 8 -43 13 l-25 10 40 34 c32 29 37 37 25 45 -8 5 -28 8 -45 5 -40 -5 -91
17 -100 44 -5 14 1 38 17 68 29 56 30 122 3 152 -15 17 -31 20 -107 20 -75 0
-98 4 -143 26 -54 25 -104 72 -106 100 -2 22 -4 28 -16 49 -6 11 -9 35 -7 53
11 97 90 135 180 89 18 -9 45 -13 69 -10 37 4 114 9 195 12 31 2 39 8 71 59
21 31 40 66 43 77 10 33 63 83 96 90 57 12 105 -3 138 -44 17 -21 67 -63 111
-92 72 -48 100 -79 71 -79 -18 0 6 -43 50 -86 45 -45 78 -55 99 -30 9 11 8 31
-3 86 -17 78 -37 119 -61 121 -64 6 -70 4 -67 -20 2 -24 2 -24 -20 -6 -58 48
-108 100 -108 112 0 15 26 17 35 3 9 -15 25 -12 25 4 0 18 -35 75 -73 121 -16
19 -53 48 -83 66 -36 20 -61 43 -73 67 -23 45 -60 85 -125 138 -27 21 -65 53
-83 70 -21 20 -56 38 -96 49 -34 9 -89 28 -121 41 -36 14 -89 26 -133 29 -41
2 -95 12 -121 21 -84 28 -176 27 -267 -4z"/>
</g>
</svg>
